<svg width="14" height="14" viewBox="0 0 14 14" fill="none" xmlns="http://www.w3.org/2000/svg">
<path fill-rule="evenodd" clip-rule="evenodd" d="M2.51408 11.5399C2.52092 11.5399 2.52322 11.5392 2.52392 11.5399H2.51408ZM11.476 8.72737C11.476 8.10605 11.9796 7.60237 12.601 7.60237C13.2223 7.60237 13.726 8.10605 13.726 8.72737V11.5471C13.726 12.7736 12.721 13.7899 11.4859 13.7899H2.51408C1.28495 13.7899 0.274048 12.7816 0.274048 11.5451V2.5347C0.274048 1.30257 1.28561 0.289874 2.52539 0.289874H4.72595C5.34727 0.289874 5.85095 0.793553 5.85095 1.41487C5.85095 2.03619 5.34727 2.53987 4.72595 2.53987C4.72595 2.53987 2.52405 2.54464 2.52405 2.5347C2.52405 2.5347 2.52397 11.5399 2.52392 11.5399C2.52392 11.5399 11.4768 11.539 11.476 11.5471V8.72737ZM10.7899 4.78476L7.93924 7.63543C7.41458 8.16009 6.56752 8.16367 6.0391 7.63525C5.51434 7.11049 5.51054 6.26349 6.03892 5.73511L8.88959 2.88444L7.93066 1.92552C7.41776 1.41262 7.58471 0.899052 8.31923 0.794121L12.3104 0.22395C13.0502 0.118275 13.5553 0.629403 13.4504 1.36393L12.8802 5.35512C12.7746 6.09484 12.2688 6.26361 11.7488 5.74369L10.7899 4.78476Z" fill="#1F8BB6"/>
</svg>
