<svg width="22" height="8" viewBox="0 0 22 8" fill="none" xmlns="http://www.w3.org/2000/svg">
<path d="M1.56485 0.234312C1.20687 -0.078104 0.626466 -0.078104 0.268486 0.234312C-0.0894952 0.546736 -0.0894952 1.05326 0.268486 1.36569L1.92546 2.81176C2.19505 3.04704 2.47366 3.26968 2.76031 3.47968C2.75352 3.51888 2.75 3.55912 2.75 3.6V4.8C2.75 5.24184 3.16041 5.6 3.66667 5.6C4.17293 5.6 4.58334 5.24184 4.58334 4.8V4.59488C5.17512 4.89336 5.78837 5.14728 6.41667 5.35648V6.4C6.41667 6.84184 6.82708 7.2 7.33334 7.2C7.83961 7.2 8.25001 6.84184 8.25001 6.4V5.83344C8.85513 5.94872 9.46798 6.02552 10.0833 6.06376V7.2C10.0833 7.64184 10.4937 8 11 8C11.5063 8 11.9167 7.64184 11.9167 7.2V6.06376C12.532 6.02552 13.1449 5.94872 13.75 5.83344V6.4C13.75 6.84184 14.1604 7.2 14.6667 7.2C15.173 7.2 15.5833 6.84184 15.5833 6.4V5.35648C16.2116 5.14728 16.8249 4.89336 17.4167 4.59488V4.8C17.4167 5.24184 17.8271 5.6 18.3334 5.6C18.8396 5.6 19.25 5.24184 19.25 4.8V3.6C19.25 3.55912 19.2465 3.51888 19.2398 3.47968C19.5264 3.26968 19.805 3.04704 20.0746 2.81176L21.7315 1.36569C22.0895 1.05326 22.0895 0.546736 21.7315 0.234312C21.3736 -0.078104 20.7931 -0.078104 20.4352 0.234312L18.7782 1.6804C14.4824 5.42944 7.5176 5.42944 3.22183 1.6804L1.56485 0.234312Z" fill="#757575"/>
</svg>
