<svg height="469pt" viewBox="-30 0 469 469.33202" width="469pt" xmlns="http://www.w3.org/2000/svg"><path d="m305.152344 171.582031-96-42.667969c-2.757813-1.226562-5.90625-1.226562-8.664063 0l-96 42.667969c-3.855469 1.714844-6.335937 5.535157-6.335937 9.75v117.332031c0 4.21875 2.480468 8.039063 6.335937 9.75l96 42.667969c2.757813 1.222657 5.90625 1.222657 8.664063 0l96-42.667969c3.855468-1.710937 6.335937-5.53125 6.335937-9.75v-117.332031c0-4.214843-2.480469-8.035156-6.335937-9.75zm-100.332032-21.238281 69.738282 30.988281-69.738282 30.992188-69.738281-30.992188zm-85.332031 47.402344 74.664063 33.179687v93.988281l-74.664063-33.175781zm96 127.167968v-93.980468l74.664063-33.1875v93.992187zm0 0"/><path d="m180.363281 50.207031 13.789063-13.792969v38.25c0 5.890626 4.777344 10.667969 10.667968 10.667969 5.890626 0 10.667969-4.777343 10.667969-10.667969v-38.25l13.789063 13.792969c2.683594 2.753907 6.640625 3.847657 10.355468 2.867188 3.714844-.976563 6.617188-3.878907 7.597657-7.597657.980469-3.714843-.117188-7.671874-2.867188-10.351562l-32-32c-4.167969-4.167969-10.917969-4.167969-15.085937 0l-32 32c-4.074219 4.179688-4.03125 10.859375.097656 14.988281 4.125 4.128907 10.808594 4.167969 14.988281.09375zm0 0"/><path d="m229.277344 419.125-13.789063 13.789062v-38.25c0-5.890624-4.777343-10.664062-10.667969-10.664062-5.890624 0-10.667968 4.773438-10.667968 10.664062v38.25l-13.789063-13.789062c-4.179687-4.078125-10.863281-4.035156-14.988281.09375-4.128906 4.128906-4.171875 10.808594-.097656 14.988281l32 32c4.164062 4.167969 10.921875 4.167969 15.085937 0l32-32c4.074219-4.179687 4.03125-10.859375-.097656-14.988281-4.125-4.128906-10.808594-4.171875-14.988281-.09375zm0 0"/><path d="m71.59375 145.425781-33.121094-19.121093 18.832032-5.046876c3.730468-.941406 6.667968-3.816406 7.679687-7.53125 1.015625-3.710937-.046875-7.683593-2.785156-10.390624-2.734375-2.707032-6.714844-3.730469-10.414063-2.679688l-43.710937 11.707031c-5.6875 1.527344-9.0625 7.375-7.539063 13.0625l11.707032 43.707031c.941406 3.730469 3.820312 6.664063 7.53125 7.679688 3.710937 1.011719 7.679687-.050781 10.386718-2.785156 2.707032-2.734375 3.734375-6.710938 2.6875-10.414063l-5.046875-18.835937 33.125 19.128906c5.105469 2.945312 11.628907 1.195312 14.574219-3.90625 2.945312-5.105469 1.195312-11.628906-3.90625-14.574219zm0 0"/><path d="m397.402344 300.195312c-.941406-3.730468-3.820313-6.660156-7.53125-7.675781-3.710938-1.011719-7.679688.050781-10.386719 2.785157-2.707031 2.730468-3.734375 6.710937-2.683594 10.414062l5.042969 18.832031-33.128906-19.125c-5.101563-2.945312-11.625-1.195312-14.570313 3.90625-2.945312 5.101563-1.199219 11.628907 3.90625 14.574219l33.117188 19.121094-18.828125 5.042968c-3.730469.941407-6.667969 3.820313-7.683594 7.53125-1.011719 3.714844.050781 7.683594 2.785156 10.390626 2.734375 2.710937 6.714844 3.734374 10.417969 2.683593l43.707031-11.707031c5.691406-1.527344 9.066406-7.375 7.542969-13.0625zm0 0"/><path d="m343.394531 165.332031c1.867188 0 3.703125-.492187 5.320313-1.425781l33.128906-19.128906-5.042969 18.835937c-1.050781 3.703125-.023437 7.679688 2.683594 10.414063s6.675781 3.796875 10.386719 2.785156c3.710937-1.015625 6.589844-3.949219 7.53125-7.679688l11.710937-43.707031c1.519531-5.6875-1.855469-11.535156-7.542969-13.0625l-43.707031-11.707031c-5.65625-1.433594-11.414062 1.941406-12.921875 7.578125-1.511718 5.632813 1.785156 11.4375 7.398438 13.023437l18.832031 5.046876-33.121094 19.121093c-4.183593 2.414063-6.222656 7.339844-4.972656 12.003907 1.253906 4.667968 5.484375 7.90625 10.316406 7.902343zm0 0"/><path d="m60.925781 305.425781-33.125 19.125 5.042969-18.832031c1.046875-3.703125.023438-7.683594-2.683594-10.414062-2.707031-2.734376-6.675781-3.796876-10.390625-2.785157-3.710937 1.015625-6.585937 3.945313-7.53125 7.675781l-11.710937 43.710938c-1.519532 5.6875 1.855468 11.535156 7.542968 13.0625l43.707032 11.707031c3.703125 1.046875 7.679687.019531 10.410156-2.6875 2.734375-2.707031 3.796875-6.671875 2.785156-10.382812-1.011718-3.710938-3.945312-6.589844-7.671875-7.535157l-18.832031-5.042968 33.121094-19.121094c5.101562-2.945312 6.851562-9.472656 3.90625-14.574219-2.945313-5.101562-9.46875-6.851562-14.574219-3.90625zm0 0"/></svg>