<svg version="1.1" height="512" viewBox="0 0 8.4666667 8.4666667" width="512" xmlns="http://www.w3.org/2000/svg" xmlnsSvg="http://www.w3.org/2000/svg"><g id="layer2"><path id="path824" d="m4.8671813.05331076-3.1054259 2.32814504h-1.35762308c-.219053 0-.404134.185302-.404134.4040408v2.8959731c0 .218739.178879.404041.404134.404041h1.35762308l3.1054259 2.3276279c.1752021.1313212.4255321.006.4242891-.2128699-.0008996-.158201-.0005292-5.2907701-.0005292-7.93615389 0-.20796705-.244856-.34492795-.4237599-.21080405zm-.1049099.73988106v6.87903278l-2.647028-1.983005v-2.9119888zm1.602068 1.08347098c-.304323-.03637-.405751.476091-.04806.528044.9345938.135745 1.6211889.9094869 1.6211889 1.8274849 0 .918023-.68608 1.6977249-1.6211889 1.8300679-.3480641.03451-.2708071.5874711.07442.523394 1.1867361-.167957 2.075969-1.1710739 2.075969-2.3534619 0-1.323539-1.0553631-2.2373693-2.102329-2.3555289zm-5.83514206 1.0333528h1.05684706l.001 2.6459011h-1.05784706zm5.73850116.7201591c.2657168.09217.4372088.3318222.4372088.602017 0 .2702791-.173442.5134351-.4392771.605545-.342578.1054719-.149819.6258949.1757111.499626.472635-.1637639.792765-.6080361.792765-1.105171 0-.50429-.324467-.9412909-.7968991-1.105172-.3575719-.09579-.4870709.378563-.1695087.503155z" font-variant-ligatures="normal" font-variant-position="normal" font-variant-caps="normal" font-variant-numeric="normal" font-variant-alternates="normal" font-feature-settings="normal" text-indent="0" text-align="start" text-decoration-line="none" text-decoration-style="solid" text-decoration-color="rgb(0,0,0)" text-transform="none" text-orientation="mixed" white-space="normal" shape-padding="0" isolation="auto" mix-blend-mode="normal" solid-color="rgb(0,0,0)" solid-opacity="1" vector-effect="none"/></g></svg>