<svg height="512" viewBox="0 0 64 64" width="512" xmlns="http://www.w3.org/2000/svg"><g id="Flat"><path d="m12 37v-32a2 2 0 0 1 2-2h26l12 12v22" fill="#d6d6d4"/><path d="m52 57v2a2 2 0 0 1 -2 2h-36a2 2 0 0 1 -2-2v-2" fill="#d6d6d4"/><path d="m40 3v12h12" fill="#44546c"/><rect fill="#348fd9" height="20" rx="2" width="46" x="9" y="37"/><path d="m46 26h-28a1 1 0 0 1 0-2h28a1 1 0 0 1 0 2z" fill="#44546c"/><path d="m46 32h-28a1 1 0 0 1 0-2h28a1 1 0 0 1 0 2z" fill="#44546c"/><g fill="#d6d6d4"><path d="m24.12 45.24a3.43 3.43 0 0 0 0-.4 1.09 1.09 0 0 0 -.18-.47 1.27 1.27 0 0 0 -.42-.41 1.62 1.62 0 0 0 -.8-.16 1.42 1.42 0 0 0 -1.07.39 1.71 1.71 0 0 0 -.38 1.22v4.26a1.69 1.69 0 0 0 .38 1.21 1.41 1.41 0 0 0 1.09.4 1.44 1.44 0 0 0 .75-.16 1.16 1.16 0 0 0 .42-.4 1.47 1.47 0 0 0 .19-.53c0-.18 0-.36.05-.52a.64.64 0 0 1 .4-.6 2 2 0 0 1 .84-.16 1.59 1.59 0 0 1 1 .24 1.16 1.16 0 0 1 .3 1 3.31 3.31 0 0 1 -.3 1.44 2.93 2.93 0 0 1 -.86 1.05 3.77 3.77 0 0 1 -1.28.65 5.38 5.38 0 0 1 -1.6.23 5.58 5.58 0 0 1 -1.49-.2 3.49 3.49 0 0 1 -1.23-.66 3.19 3.19 0 0 1 -.93-1.23 4.33 4.33 0 0 1 -.31-1.76v-4.26a4.4 4.4 0 0 1 .31-1.76 3.11 3.11 0 0 1 .83-1.18 3.19 3.19 0 0 1 1.23-.66 5.21 5.21 0 0 1 1.49-.2 5.74 5.74 0 0 1 1.6.21 3.72 3.72 0 0 1 1.28.62 2.85 2.85 0 0 1 .86 1 3 3 0 0 1 .3 1.37 1.2 1.2 0 0 1 -.3 1 1.62 1.62 0 0 1 -.95.23 2 2 0 0 1 -.87-.16.66.66 0 0 1 -.35-.64z"/><path d="m28.71 53.37a2.14 2.14 0 0 1 -.54-.08 1.85 1.85 0 0 1 -.52-.22 1.28 1.28 0 0 1 -.4-.32.63.63 0 0 1 -.15-.41 1.05 1.05 0 0 1 0-.18l3-9.81a1 1 0 0 1 .6-.63 2.66 2.66 0 0 1 2.07 0 1 1 0 0 1 .61.63l3 9.81a1.05 1.05 0 0 1 0 .18.63.63 0 0 1 -.15.41 1.41 1.41 0 0 1 -.4.32 1.85 1.85 0 0 1 -.52.22 2.14 2.14 0 0 1 -.54.08 1.18 1.18 0 0 1 -.52-.1.54.54 0 0 1 -.3-.37l-.55-2h-3.32l-.55 2a.54.54 0 0 1 -.3.37 1.18 1.18 0 0 1 -.52.1zm4.23-4.37-1.17-4.31-1.18 4.31z"/><path d="m41.33 41.61a5.65 5.65 0 0 1 1.56.2 3.07 3.07 0 0 1 1.25.66 3.13 3.13 0 0 1 .86 1.18 4.59 4.59 0 0 1 .3 1.76v4.16a4.61 4.61 0 0 1 -.3 1.77 3.17 3.17 0 0 1 -.84 1.17 3.07 3.07 0 0 1 -1.25.66 6.06 6.06 0 0 1 -1.56.2h-2.87a1.31 1.31 0 0 1 -.8-.22.66.66 0 0 1 -.3-.53v-10.26a.66.66 0 0 1 .3-.53 1.31 1.31 0 0 1 .8-.22zm-1.44 2.19v7.38h1.44a1.43 1.43 0 0 0 1.06-.39 1.67 1.67 0 0 0 .38-1.22v-4.16a1.67 1.67 0 0 0 -.38-1.22 1.43 1.43 0 0 0 -1.06-.39z"/></g></g></svg>