<svg id="Layer_6" height="512" viewBox="0 0 32 32" width="512" xmlns="http://www.w3.org/2000/svg" data-name="Layer 6"><path d="m3.2 8.53v4.27a1.07 1.07 0 1 0 2.13 0v-4.27h1.07v.1a1.07 1.07 0 0 0 2.13 0v-2.33a1.07 1.07 0 1 0 -2.13 0v.1h-3.2a1.07 1.07 0 1 0 0 2.13z"/><path d="m3.2 17.07v4.27a1.07 1.07 0 1 0 2.13 0v-4.27h1.07v.1a1.07 1.07 0 1 0 2.13 0v-2.33a1.07 1.07 0 1 0 -2.13 0v.1h-3.2a1.07 1.07 0 0 0 0 2.13z"/><path d="m24.53 0h-16a5.32 5.32 0 0 0 -5.16 4 1.07 1.07 0 0 0 2.07.53 3.19 3.19 0 0 1 3.09-2.4h16a3.2 3.2 0 0 1 3.2 3.2v21.34a3.2 3.2 0 0 1 -3.2 3.2h-16a3.2 3.2 0 0 1 -3.2-3.2v-1.07h1.07v.1a1.07 1.07 0 1 0 2.13 0v-2.33a1.07 1.07 0 0 0 -2.13 0v.1h-3.2a1.07 1.07 0 1 0 0 2.13v1.07a5.34 5.34 0 0 0 5.33 5.33h16a5.34 5.34 0 0 0 5.33-5.33v-21.34a5.34 5.34 0 0 0 -5.33-5.33z"/><path d="m17.07 17.35a4 4 0 1 1 4-4 4 4 0 0 1 -4 4zm0-5.8a1.83 1.83 0 1 0 1.83 1.83 1.83 1.83 0 0 0 -1.83-1.83z"/><path d="m21.33 22.34a1.06 1.06 0 0 1 -.79-.34 4.72 4.72 0 0 0 -7 0 1.07 1.07 0 1 1 -1.54-1.45 6.85 6.85 0 0 1 10.1 0 1.07 1.07 0 0 1 -.79 1.79z"/></svg>