<?xml version="1.0" encoding="iso-8859-1"?>
<!-- Generator: Adobe Illustrator 19.0.0, SVG Export Plug-In . SVG Version: 6.00 Build 0)  -->
<svg version="1.1" id="Capa_1" xmlns="http://www.w3.org/2000/svg" xmlns:xlink="http://www.w3.org/1999/xlink" x="0px" y="0px"
	 viewBox="0 0 512 512" style="enable-background:new 0 0 512 512;" xml:space="preserve">
<g>
	<g>
		<path d="M276.48,0H71.68c-5.652,0-10.24,4.588-10.24,10.24v491.52c0,5.652,4.588,10.24,10.24,10.24h368.64
			c5.652,0,10.24-4.588,10.24-10.24V174.08C450.56,126.894,323.666,0,276.48,0z M430.08,491.52H81.92V20.48h194.56
			c35.881,0,153.6,117.719,153.6,153.6V491.52z"/>
	</g>
</g>
<g>
	<g>
		<path d="M434.176,143.36H307.2V16.384c0-5.673-4.588-10.24-10.24-10.24c-5.653,0-10.24,4.588-10.24,10.24V153.6
			c0,5.653,4.588,10.24,10.24,10.24h137.216c5.673,0,10.24-4.587,10.24-10.24C444.416,147.948,439.828,143.36,434.176,143.36z"/>
	</g>
</g>
<g>
</g>
<g>
</g>
<g>
</g>
<g>
</g>
<g>
</g>
<g>
</g>
<g>
</g>
<g>
</g>
<g>
</g>
<g>
</g>
<g>
</g>
<g>
</g>
<g>
</g>
<g>
</g>
<g>
</g>
</svg>
