<?xml version="1.0" encoding="iso-8859-1"?>
<!-- Generator: Adobe Illustrator 19.0.0, SVG Export Plug-In . SVG Version: 6.00 Build 0)  -->
<svg version="1.1" id="Layer_1" xmlns="http://www.w3.org/2000/svg" xmlns:xlink="http://www.w3.org/1999/xlink" x="0px" y="0px"
	 viewBox="0 0 481.882 481.882" style="enable-background:new 0 0 481.882 481.882;" xml:space="preserve">
<path style="fill:#FF8000;" d="M60.235,28.913C60.235,12.943,73.178,0,89.148,0h212.028l120.471,101.195v351.774
	c0,15.97-12.943,28.913-28.913,28.913H89.148c-15.97,0-28.913-12.943-28.913-28.913V28.913z"/>
<path style="fill:#FC6100;" d="M301.176,0v72.282c0,15.97,12.943,28.913,28.913,28.913h91.558"/>
<g>
	<path style="fill:#FFFFFF;" d="M150.904,305.536H139.61v34.643h-25.005v-104.38h32.986c28.469,0,44.732,11.144,44.732,34.04
		C192.316,294.4,175.601,305.536,150.904,305.536z M147.893,253.568h-8.282v33.89h9.186c11.294,0,17.769-5.429,17.769-17.626
		C166.566,258.846,160.392,253.568,147.893,253.568z"/>
	<path style="fill:#FFFFFF;" d="M241.257,305.536h-11.294v34.643h-25.005v-104.38h32.986c28.469,0,44.732,11.144,44.732,34.04
		C282.669,294.4,265.954,305.536,241.257,305.536z M238.246,253.568h-8.282v33.89h9.186c11.294,0,17.769-5.429,17.769-17.626
		C256.919,258.846,250.744,253.568,238.246,253.568z"/>
	<path style="fill:#FFFFFF;" d="M343.665,254.923v85.256h-25.02v-85.256h-29.222v-19.132h84.661l-2.575,19.132H343.665z"/>
</g>
<g>
</g>
<g>
</g>
<g>
</g>
<g>
</g>
<g>
</g>
<g>
</g>
<g>
</g>
<g>
</g>
<g>
</g>
<g>
</g>
<g>
</g>
<g>
</g>
<g>
</g>
<g>
</g>
<g>
</g>
</svg>
