<svg viewBox="1 0 511.99902 511" xmlns="http://www.w3.org/2000/svg"><path d="m175.667969 154.738281h-48.203125c-8.28125 0-15 6.714844-15 15v173.519531c0 8.28125 6.71875 15 15 15 8.285156 0 15-6.71875 15-15v-62.117187h33.203125c34.847656-.003906 63.199219-28.355469 63.199219-63.199219 0-34.851562-28.351563-63.203125-63.199219-63.203125zm0 96.398438h-33.203125v-66.398438h33.203125c18.304687 0 33.199219 14.894531 33.199219 33.203125 0 18.304688-14.894532 33.195313-33.199219 33.195313zm0 0"/><path d="m452.878906 70.664062h44.121094c8.28125 0 15-6.714843 15-15 0-8.28125-6.71875-15-15-15h-80.332031c-6.066407 0-11.535157 3.65625-13.859375 9.261719-2.320313 5.605469-1.039063 12.054688 3.253906 16.347657l54.722656 54.726562h-109.453125v-105.5c0-4.367188-1.902343-8.515625-5.210937-11.367188-3.308594-2.847656-7.691406-4.117187-12.011719-3.46875l-321.335937 48.199219c-7.339844 1.101563-12.773438 7.410157-12.773438 14.835938v385.601562c0 7.421875 5.433594 13.730469 12.773438 14.832031l321.335937 48.199219c.738281.109375 1.484375.164063 2.222656.164063 3.570313 0 7.050781-1.273438 9.789063-3.632813 3.308594-2.847656 5.210937-7 5.210937-11.367187v-25.164063h145.667969c8.28125 0 15-6.714843 15-15v-321.332031c0-3.980469-1.582031-7.792969-4.394531-10.605469zm-101.546875 160.667969h50.335938v50.332031h-50.335938zm-30 248.746094-291.332031-43.699219v-359.761718l291.332031-43.699219zm160.667969-37.746094h-130.667969v-50.332031h65.335938c8.28125 0 15-6.71875 15-15 0-8.285156-6.71875-15-15-15h-65.335938v-50.335938h65.335938c8.28125 0 15-6.714843 15-15v-80.332031c0-8.285156-6.71875-15-15-15h-65.335938v-50.332031h130.667969zm0 0"/></svg>